<svg version="1.1" xmlns="http://www.w3.org/2000/svg" viewBox="0 0 250 250">
<path fill="#1C9BD6" d="M97.1,49.3c18-6.7,37.8-6.8,55.9-0.2l17.5-30.2c-29-12.3-61.8-12.2-90.8,0.3L97.1,49.3z"/>
<path fill="#6AC7B9" d="M194.6,32.8L177.2,63c14.8,12.3,24.7,29.5,27.9,48.5h34.9C236.2,80.2,219.9,51.7,194.6,32.8z"/>
<path fill="#BF9CC9" d="M204.9,139.4c-7.9,43.9-49.9,73-93.8,65.1c-13.8-2.5-26.8-8.6-37.5-17.6l-26.8,22.4
	c46.6,43.4,119.5,40.9,162.9-5.7c16.5-17.7,27-40.2,30.1-64.2H204.9z"/>
<path fill="#D61D5F" d="M55.6,165.6C35.9,131.8,43.3,88.8,73.1,63.5L55.7,33.2C7.5,69.8-4.2,137.4,28.8,188L55.6,165.6z"/>
</svg>
